<svg width="1917" height="1088" viewBox="0 0 1917 1088" fill="none" xmlns="http://www.w3.org/2000/svg">
<path d="M3 700.105V799.404L12.961 769.313L3 700.105Z" fill="#E9F8FE"/>
<path d="M3 700.105V799.404L12.961 769.313L3 700.105Z" stroke="#E9F8FE" stroke-width="1.33333"/>
<path d="M3 400.202V500.504L102.609 468.408L3 400.202Z" fill="#C4E9FA"/>
<path d="M3 400.202V500.504L102.609 468.408L3 400.202Z" stroke="#C4E9FA" stroke-width="1.33333"/>
<path d="M3 1.99998V101.302L101.613 1.99998H3Z" fill="#BCE9FB"/>
<path d="M3 1.99998V101.302L101.613 1.99998H3Z" stroke="#BCE9FB" stroke-width="1.33333"/>
<path d="M3 999.005V1085.26H101.613L3 999.005Z" fill="#F9FDFF"/>
<path d="M3 999.005V1085.26H101.613L3 999.005Z" stroke="#F9FDFF" stroke-width="1.33333"/>
<path d="M3 200.601V300.903L92.6485 212.637L3 200.601Z" fill="#D2F0FC"/>
<path d="M3 200.601V300.903L92.6485 212.637L3 200.601Z" stroke="#D2F0FC" stroke-width="1.33333"/>
<path d="M3 101.302V200.601L92.6485 212.637L3 101.302Z" fill="#BFEAFB"/>
<path d="M3 101.302V200.601L92.6485 212.637L3 101.302Z" stroke="#BFEAFB" stroke-width="1.33333"/>
<path d="M3 599.803V700.105L127.512 638.921L3 599.803Z" fill="#CEE9F9"/>
<path d="M3 599.803V700.105L127.512 638.921L3 599.803Z" stroke="#CEE9F9" stroke-width="1.33333"/>
<path d="M3 500.504V599.803L102.609 468.407L3 500.504Z" fill="#D0EEF9"/>
<path d="M3 500.504V599.803L102.609 468.407L3 500.504Z" stroke="#D0EEF9" stroke-width="1.33333"/>
<path d="M3 400.202L102.609 468.407L162.375 393.181L3 400.202Z" fill="#CCEDFB"/>
<path d="M3 400.202L102.609 468.407L162.375 393.181L3 400.202Z" stroke="#CCEDFB" stroke-width="1.33333"/>
<path d="M3 300.903V400.202L162.375 393.181L3 300.903Z" fill="#92DBF8"/>
<path d="M3 300.903V400.202L162.375 393.181L3 300.903Z" stroke="#92DBF8" stroke-width="1.33333"/>
<path d="M102.609 468.407L3 599.803L127.512 638.921L102.609 468.407Z" fill="#95C6E5"/>
<path d="M102.609 468.407L3 599.803L127.512 638.921L102.609 468.407Z" stroke="#95C6E5" stroke-width="1.33333"/>
<path d="M3 700.105L12.961 769.313L127.512 638.921L3 700.105Z" fill="#DBF0FB"/>
<path d="M3 700.105L12.961 769.313L127.512 638.921L3 700.105Z" stroke="#DBF0FB" stroke-width="1.33333"/>
<path d="M92.6485 212.637L3 300.903L162.375 393.181L92.6485 212.637Z" fill="#C1EBFB"/>
<path d="M92.6485 212.637L3 300.903L162.375 393.181L92.6485 212.637Z" stroke="#C1EBFB" stroke-width="1.33333"/>
<path d="M3 101.302L92.6485 212.637L101.613 2.00006L3 101.302Z" fill="#B4E7FA"/>
<path d="M3 101.302L92.6485 212.637L101.613 2.00005L3 101.302Z" stroke="#B4E7FA" stroke-width="1.33333"/>
<path d="M127.512 638.921L12.9609 769.313L227.121 714.147L127.512 638.921Z" fill="#C6E5F5"/>
<path d="M127.512 638.921L12.9609 769.313L227.121 714.147L127.512 638.921Z" stroke="#C6E5F5" stroke-width="1.33333"/>
<path d="M3 999.005L101.613 1085.26L172.336 1080.25L3 999.005Z" fill="#F7FCFE"/>
<path d="M3 999.005L101.613 1085.26L172.336 1080.25L3 999.005Z" stroke="#F7FCFE" stroke-width="1.33333"/>
<path d="M3 899.706L172.336 1080.25L261.984 1005.02L3 899.706Z" fill="#F4FBFE"/>
<path d="M3 899.706L172.336 1080.25L261.984 1005.02L3 899.706Z" stroke="#F4FBFE" stroke-width="1.33333"/>
<path d="M172.336 1080.25L200.227 1085.26L261.984 1005.02L172.336 1080.25Z" fill="#F6FAFE"/>
<path d="M172.336 1080.25L200.227 1085.26L261.984 1005.02L172.336 1080.25Z" stroke="#F6FAFE" stroke-width="1.33333"/>
<path d="M12.961 769.313L3 799.404L227.121 714.147L12.961 769.313Z" fill="#D6EEFB"/>
<path d="M12.961 769.313L3 799.404L227.121 714.147L12.961 769.313Z" stroke="#D6EEFB" stroke-width="1.33333"/>
<path d="M101.613 2.00006L92.6484 212.637L200.227 2.00006H101.613Z" fill="#A8E3FA"/>
<path d="M101.613 2.00005L92.6484 212.637L200.227 2.00005H101.613Z" stroke="#A8E3FA" stroke-width="1.33333"/>
<path d="M3 899.706V999.005L172.336 1080.25L3 899.706Z" fill="#F3FBFD"/>
<path d="M3 899.706V999.005L172.336 1080.25L3 899.706Z" stroke="#F3FBFD" stroke-width="1.33333"/>
<path d="M261.984 1005.02L200.227 1085.26H299.836L261.984 1005.02Z" fill="#EFFAFE"/>
<path d="M261.984 1005.02L200.227 1085.26H299.836L261.984 1005.02Z" stroke="#EFFAFE" stroke-width="1.33333"/>
<path d="M3 799.404V899.706L227.121 714.147L3 799.404Z" fill="#E8F7FD"/>
<path d="M3 799.404V899.706L227.121 714.147L3 799.404Z" stroke="#E8F7FD" stroke-width="1.33333"/>
<path d="M227.121 714.147L261.984 1005.02L326.73 984.963L227.121 714.147Z" fill="#E2F6FD"/>
<path d="M227.121 714.147L261.984 1005.02L326.73 984.963L227.121 714.147Z" stroke="#E2F6FD" stroke-width="1.33333"/>
<path d="M261.984 1005.02L299.836 1085.26L326.73 984.963L261.984 1005.02Z" fill="#DEF4FD"/>
<path d="M261.984 1005.02L299.836 1085.26L326.73 984.963L261.984 1005.02Z" stroke="#DEF4FD" stroke-width="1.33333"/>
<path d="M227.121 714.147L3 899.706L261.984 1005.02L227.121 714.147Z" fill="#E2F6FD"/>
<path d="M227.121 714.147L3 899.706L261.984 1005.02L227.121 714.147Z" stroke="#E2F6FD" stroke-width="1.33333"/>
<path d="M172.336 1080.25L101.613 1085.26H200.227L172.336 1080.25Z" fill="#F6FBFE"/>
<path d="M172.336 1080.25L101.613 1085.26H200.227L172.336 1080.25Z" stroke="#F6FBFE" stroke-width="1.33333"/>
<path d="M398.449 2.00009H299.836L401.437 82.2417L398.449 2.00009Z" fill="#ADE5FA"/>
<path d="M398.449 2.00009H299.836L401.437 82.2417L398.449 2.00009Z" stroke="#ADE5FA" stroke-width="1.33333"/>
<path d="M92.6484 212.637L162.375 393.181L401.437 82.2417L92.6484 212.637Z" fill="#A1E1F9"/>
<path d="M92.6484 212.637L162.375 393.181L401.437 82.2417L92.6484 212.637Z" stroke="#A1E1F9" stroke-width="1.33333"/>
<path d="M299.836 2.00006L92.6484 212.637L401.437 82.2417L299.836 2.00006Z" fill="#71C7F1"/>
<path d="M299.836 2.00005L92.6484 212.637L401.437 82.2417L299.836 2.00005Z" stroke="#71C7F1" stroke-width="1.33333"/>
<path d="M326.73 984.963L299.836 1085.26H398.449L326.73 984.963Z" fill="#D9F3FC"/>
<path d="M326.73 984.963L299.836 1085.26H398.449L326.73 984.963Z" stroke="#D9F3FC" stroke-width="1.33333"/>
<path d="M200.227 2.00006L92.6484 212.637L299.836 2.00006H200.227Z" fill="#C4ECFA"/>
<path d="M200.227 2.00005L92.6484 212.637L299.836 2.00005H200.227Z" stroke="#C4ECFA" stroke-width="1.33333"/>
<path d="M162.375 393.181L127.512 638.921L227.121 714.147L162.375 393.181Z" fill="#7FB4DA"/>
<path d="M162.375 393.181L127.512 638.921L227.121 714.147L162.375 393.181Z" stroke="#7FB4DA" stroke-width="1.33333"/>
<path d="M102.609 468.408L127.512 638.921L162.375 393.181L102.609 468.408Z" fill="#B6DAF2"/>
<path d="M102.609 468.408L127.512 638.921L162.375 393.181L102.609 468.408Z" stroke="#B6DAF2" stroke-width="1.33333"/>
<path d="M398.449 2.00009L401.438 82.2417L498.059 2.00009H398.449Z" fill="#A2E1F9"/>
<path d="M398.449 2.00009L401.438 82.2417L498.059 2.00009H398.449Z" stroke="#A2E1F9" stroke-width="1.33333"/>
<path d="M162.375 393.181L227.121 714.147L555.832 523.574L162.375 393.181Z" fill="#5B9ECB"/>
<path d="M162.375 393.181L227.121 714.147L555.832 523.574L162.375 393.181Z" stroke="#5B9ECB" stroke-width="1.33333"/>
<path d="M545.871 383.151L162.375 393.181L555.832 523.573L545.871 383.151Z" fill="#71C6EC"/>
<path d="M545.871 383.151L162.375 393.181L555.832 523.573L545.871 383.151Z" stroke="#71C6EC" stroke-width="1.33333"/>
<path d="M401.437 82.2417L162.375 393.181L545.871 383.151L401.437 82.2417Z" fill="#A2DDF7"/>
<path d="M401.437 82.2417L162.375 393.181L545.871 383.151L401.437 82.2417Z" stroke="#A2DDF7" stroke-width="1.33333"/>
<path d="M326.73 984.963L398.449 1085.26H498.059L326.73 984.963Z" fill="#D2F0FC"/>
<path d="M326.73 984.963L398.449 1085.26H498.059L326.73 984.963Z" stroke="#D2F0FC" stroke-width="1.33333"/>
<path d="M545.871 383.151L555.832 523.573L575.754 408.226L545.871 383.151Z" fill="#5FB1E6"/>
<path d="M545.871 383.151L555.832 523.573L575.754 408.226L545.871 383.151Z" stroke="#5FB1E6" stroke-width="1.33333"/>
<path d="M575.754 408.226L555.832 523.573L650.461 593.785L575.754 408.226Z" fill="#66B9EA"/>
<path d="M575.754 408.226L555.832 523.573L650.461 593.785L575.754 408.226Z" stroke="#66B9EA" stroke-width="1.33333"/>
<path d="M227.121 714.147L326.73 984.963L650.461 593.785L227.121 714.147Z" fill="#82D2F5"/>
<path d="M227.121 714.147L326.73 984.963L650.461 593.785L227.121 714.147Z" stroke="#82D2F5" stroke-width="1.33333"/>
<path d="M555.832 523.574L227.121 714.147L650.461 593.785L555.832 523.574Z" fill="#5AB0E6"/>
<path d="M555.832 523.574L227.121 714.147L650.461 593.785L555.832 523.574Z" stroke="#5AB0E6" stroke-width="1.33333"/>
<path d="M498.059 2.00009L401.438 82.2417L596.672 2.00009H498.059Z" fill="#B9E6F9"/>
<path d="M498.059 2.00009L401.438 82.2417L596.672 2.00009H498.059Z" stroke="#B9E6F9" stroke-width="1.33333"/>
<path d="M401.438 82.2417L545.871 383.151L596.672 2.00006L401.438 82.2417Z" fill="#86D8F7"/>
<path d="M401.438 82.2417L545.871 383.151L596.672 2.00005L401.438 82.2417Z" stroke="#86D8F7" stroke-width="1.33333"/>
<path d="M596.672 1085.26H696.281L789.914 929.797L596.672 1085.26Z" fill="#A2E1F9"/>
<path d="M596.672 1085.26H696.281L789.914 929.797L596.672 1085.26Z" stroke="#A2E1F9" stroke-width="1.33333"/>
<path d="M326.73 984.963L498.059 1085.26L650.461 593.785L326.73 984.963Z" fill="#A2E1F9"/>
<path d="M326.73 984.963L498.059 1085.26L650.461 593.785L326.73 984.963Z" stroke="#A2E1F9" stroke-width="1.33333"/>
<path d="M650.461 593.785L596.672 1085.26L789.914 929.797L650.461 593.785Z" fill="#BAE1F7"/>
<path d="M650.461 593.785L596.672 1085.26L789.914 929.797L650.461 593.785Z" stroke="#BAE1F7" stroke-width="1.33333"/>
<path d="M498.059 1085.26H596.672L650.461 593.785L498.059 1085.26Z" fill="#CEEEFB"/>
<path d="M498.059 1085.26H596.672L650.461 593.785L498.059 1085.26Z" stroke="#CEEEFB" stroke-width="1.33333"/>
<path d="M794.895 2.00011H696.281L834.738 167.501L794.895 2.00011Z" fill="#7BD3F6"/>
<path d="M794.895 2.00011H696.281L834.738 167.501L794.895 2.00011Z" stroke="#7BD3F6" stroke-width="1.33333"/>
<path d="M545.871 383.151L575.754 408.226L834.738 167.501L545.871 383.151Z" fill="#61AFE4"/>
<path d="M545.871 383.151L575.754 408.226L834.738 167.501L545.871 383.151Z" stroke="#61AFE4" stroke-width="1.33333"/>
<path d="M596.672 2.00006L545.871 383.151L834.738 167.501L596.672 2.00006Z" fill="#76CDF3"/>
<path d="M596.672 2.00005L545.871 383.151L834.738 167.501L596.672 2.00005Z" stroke="#76CDF3" stroke-width="1.33333"/>
<path d="M696.281 2.00011H596.672L834.738 167.501L696.281 2.00011Z" fill="#B5E7FA"/>
<path d="M696.281 2.00011H596.672L834.738 167.501L696.281 2.00011Z" stroke="#B5E7FA" stroke-width="1.33333"/>
<path d="M789.914 929.797L696.281 1085.26H794.895L789.914 929.797Z" fill="#99DEF7"/>
<path d="M789.914 929.797L696.281 1085.26H794.895L789.914 929.797Z" stroke="#99DEF7" stroke-width="1.33333"/>
<path d="M794.895 2.00011L834.738 167.501L894.504 2.00011H794.895Z" fill="#97DDF8"/>
<path d="M794.895 2.00011L834.738 167.501L894.504 2.00011H794.895Z" stroke="#97DDF8" stroke-width="1.33333"/>
<path d="M789.914 929.797L794.895 1085.26H894.504L789.914 929.797Z" fill="#91DBF8"/>
<path d="M789.914 929.797L794.895 1085.26H894.504L789.914 929.797Z" stroke="#91DBF8" stroke-width="1.33333"/>
<path d="M575.754 408.226L650.461 593.785L989.133 503.513L575.754 408.226Z" fill="#66BBEB"/>
<path d="M575.754 408.226L650.461 593.785L989.133 503.513L575.754 408.226Z" stroke="#66BBEB" stroke-width="1.33333"/>
<path d="M834.738 167.501L575.754 408.226L989.133 503.513L834.738 167.501Z" fill="#61AFE4"/>
<path d="M834.738 167.501L575.754 408.226L989.133 503.513L834.738 167.501Z" stroke="#61AFE4" stroke-width="1.33333"/>
<path d="M834.738 167.501L989.133 503.513L1028.98 343.03L834.738 167.501Z" fill="#7AD4F4"/>
<path d="M834.738 167.501L989.133 503.513L1028.98 343.03L834.738 167.501Z" stroke="#7AD4F4" stroke-width="1.33333"/>
<path d="M650.461 593.785L789.914 929.797L1028.98 769.314L650.461 593.785Z" fill="#74CFF4"/>
<path d="M650.461 593.785L789.914 929.797L1028.98 769.314L650.461 593.785Z" stroke="#74CFF4" stroke-width="1.33333"/>
<path d="M789.914 929.797L894.504 1085.26L1038.94 959.887L789.914 929.797Z" fill="#A5E2F9"/>
<path d="M789.914 929.797L894.504 1085.26L1038.94 959.887L789.914 929.797Z" stroke="#A5E2F9" stroke-width="1.33333"/>
<path d="M894.504 1085.26H993.117L1038.94 959.887L894.504 1085.26Z" fill="#88D8F7"/>
<path d="M894.504 1085.26H993.117L1038.94 959.887L894.504 1085.26Z" stroke="#88D8F7" stroke-width="1.33333"/>
<path d="M989.133 503.513L650.461 593.785L1028.98 769.313L989.133 503.513Z" fill="#60ABE2"/>
<path d="M989.133 503.513L650.461 593.785L1028.98 769.313L989.133 503.513Z" stroke="#60ABE2" stroke-width="1.33333"/>
<path d="M894.504 2.00011L834.738 167.501L1063.84 112.335L894.504 2.00011Z" fill="#8CDAF5"/>
<path d="M894.504 2.00011L834.738 167.501L1063.84 112.335L894.504 2.00011Z" stroke="#8CDAF5" stroke-width="1.33333"/>
<path d="M993.117 1.99995H894.504L1063.84 112.335L993.117 1.99995Z" fill="#DBF3FD"/>
<path d="M993.117 1.99996H894.504L1063.84 112.335L993.117 1.99996Z" stroke="#DBF3FD" stroke-width="1.33333"/>
<path d="M1028.98 769.313L789.914 929.797L1038.94 959.887L1028.98 769.313Z" fill="#88D6F6"/>
<path d="M1028.98 769.313L789.914 929.797L1038.94 959.887L1028.98 769.313Z" stroke="#88D6F6" stroke-width="1.33333"/>
<path d="M1038.94 959.887L993.117 1085.26H1091.73L1038.94 959.887Z" fill="#71CBF3"/>
<path d="M1038.94 959.887L993.117 1085.26H1091.73L1038.94 959.887Z" stroke="#71CBF3" stroke-width="1.33333"/>
<path d="M993.117 2.00006L1083.76 92.2749L1091.73 2.00006H993.117Z" fill="#C9EEFA"/>
<path d="M993.117 2.00006L1083.76 92.2749L1091.73 2.00006H993.117Z" stroke="#C9EEFA" stroke-width="1.33333"/>
<path d="M993.117 1.99995L1063.84 112.335L1083.76 92.2748L993.117 1.99995Z" fill="#68CEF5"/>
<path d="M993.117 1.99996L1063.84 112.335L1083.76 92.2748L993.117 1.99996Z" stroke="#68CEF5" stroke-width="1.33333"/>
<path d="M834.738 167.501L1028.98 343.03L1063.84 112.335L834.738 167.501Z" fill="#68C0ED"/>
<path d="M834.738 167.501L1028.98 343.03L1063.84 112.335L834.738 167.501Z" stroke="#68C0ED" stroke-width="1.33333"/>
<path d="M1083.76 538.619L1028.98 769.313L1118.63 563.694L1083.76 538.619Z" fill="#5FABE2"/>
<path d="M1083.76 538.619L1028.98 769.313L1118.63 563.694L1083.76 538.619Z" stroke="#5FABE2" stroke-width="1.33333"/>
<path d="M989.133 503.513L1028.98 769.313L1083.76 538.619L989.133 503.513Z" fill="#64B3E7"/>
<path d="M989.133 503.513L1028.98 769.313L1083.76 538.619L989.133 503.513Z" stroke="#64B3E7" stroke-width="1.33333"/>
<path d="M1028.98 343.03L989.133 503.513L1083.76 538.619L1028.98 343.03Z" fill="#5DA0DC"/>
<path d="M1028.98 343.03L989.133 503.513L1083.76 538.619L1028.98 343.03Z" stroke="#5DA0DC" stroke-width="1.33333"/>
<path d="M1038.94 959.887L1091.73 1085.26H1191.34L1038.94 959.887Z" fill="#B8E8FB"/>
<path d="M1038.94 959.887L1091.73 1085.26H1191.34L1038.94 959.887Z" stroke="#B8E8FB" stroke-width="1.33333"/>
<path d="M1091.73 2.00006L1083.76 92.2749L1191.34 2.00006H1091.73Z" fill="#D6F2FC"/>
<path d="M1091.73 2.00006L1083.76 92.2749L1191.34 2.00006H1091.73Z" stroke="#D6F2FC" stroke-width="1.33333"/>
<path d="M1191.34 2.00006L1083.76 92.2749L1289.96 2.00006H1191.34Z" fill="#D8F2FB"/>
<path d="M1191.34 2.00006L1083.76 92.2749L1289.96 2.00006H1191.34Z" stroke="#D8F2FB" stroke-width="1.33333"/>
<path d="M1028.98 343.03L1083.76 538.619L1118.63 563.694L1028.98 343.03Z" fill="#64B5E8"/>
<path d="M1028.98 343.03L1083.76 538.619L1118.63 563.694L1028.98 343.03Z" stroke="#64B5E8" stroke-width="1.33333"/>
<path d="M1028.98 769.313L1038.94 959.887L1432.4 754.268L1028.98 769.313Z" fill="#63B6E8"/>
<path d="M1028.98 769.313L1038.94 959.887L1432.4 754.268L1028.98 769.313Z" stroke="#63B6E8" stroke-width="1.33333"/>
<path d="M1038.94 959.887L1289.96 1085.26L1432.4 754.268L1038.94 959.887Z" fill="#89D7F7"/>
<path d="M1038.94 959.887L1289.96 1085.26L1432.4 754.268L1038.94 959.887Z" stroke="#89D7F7" stroke-width="1.33333"/>
<path d="M1118.63 563.694L1028.98 769.313L1432.4 754.268L1118.63 563.694Z" fill="#6AC2EE"/>
<path d="M1118.63 563.694L1028.98 769.313L1432.4 754.268L1118.63 563.694Z" stroke="#6AC2EE" stroke-width="1.33333"/>
<path d="M1038.94 959.887L1191.34 1085.26H1289.96L1038.94 959.887Z" fill="#77CCF2"/>
<path d="M1038.94 959.887L1191.34 1085.26H1289.96L1038.94 959.887Z" stroke="#77CCF2" stroke-width="1.33333"/>
<path d="M1063.84 112.335L1028.98 343.03L1083.76 92.2749L1063.84 112.335Z" fill="#6BBFEC"/>
<path d="M1063.84 112.335L1028.98 343.03L1083.76 92.2749L1063.84 112.335Z" stroke="#6BBFEC" stroke-width="1.33333"/>
<path d="M1028.98 343.03L1118.63 563.694L1467.26 312.939L1028.98 343.03Z" fill="#67BAEA"/>
<path d="M1028.98 343.03L1118.63 563.694L1467.26 312.939L1028.98 343.03Z" stroke="#67BAEA" stroke-width="1.33333"/>
<path d="M1083.76 92.2749L1028.98 343.03L1467.26 312.939L1083.76 92.2749Z" fill="#85D8F7"/>
<path d="M1083.76 92.2749L1028.98 343.03L1467.26 312.939L1083.76 92.2749Z" stroke="#85D8F7" stroke-width="1.33333"/>
<path d="M1289.96 2.00018L1083.76 92.275L1467.26 312.939L1289.96 2.00018Z" fill="#85D6F7"/>
<path d="M1289.96 2.00018L1083.76 92.275L1467.26 312.939L1289.96 2.00018Z" stroke="#85D6F7" stroke-width="1.33333"/>
<path d="M1289.96 1085.26H1389.57L1432.4 754.268L1289.96 1085.26Z" fill="#7CD1F5"/>
<path d="M1289.96 1085.26H1389.57L1432.4 754.268L1289.96 1085.26Z" stroke="#7CD1F5" stroke-width="1.33333"/>
<path d="M1389.57 2.00018H1289.96L1467.26 312.939L1389.57 2.00018Z" fill="#75D2F6"/>
<path d="M1389.57 2.00018H1289.96L1467.26 312.939L1389.57 2.00018Z" stroke="#75D2F6" stroke-width="1.33333"/>
<path d="M1432.4 754.268L1522.05 844.54L1527.03 769.314L1432.4 754.268Z" fill="#5BACE3"/>
<path d="M1432.4 754.268L1522.05 844.54L1527.03 769.314L1432.4 754.268Z" stroke="#5BACE3" stroke-width="1.33333"/>
<path d="M1432.4 754.268L1389.57 1085.26L1522.05 844.54L1432.4 754.268Z" fill="#71C7F1"/>
<path d="M1432.4 754.268L1389.57 1085.26L1522.05 844.54L1432.4 754.268Z" stroke="#71C7F1" stroke-width="1.33333"/>
<path d="M1389.57 1085.26H1488.18L1522.05 844.54L1389.57 1085.26Z" fill="#96DDF8"/>
<path d="M1389.57 1085.26H1488.18L1522.05 844.54L1389.57 1085.26Z" stroke="#96DDF8" stroke-width="1.33333"/>
<path d="M1389.57 2.00018L1467.26 312.939L1488.18 2.00018H1389.57Z" fill="#7ED3F6"/>
<path d="M1389.57 2.00018L1467.26 312.939L1488.18 2.00018H1389.57Z" stroke="#7ED3F6" stroke-width="1.33333"/>
<path d="M1118.63 563.694L1432.4 754.268L1467.26 312.939L1118.63 563.694Z" fill="#62B9EA"/>
<path d="M1118.63 563.694L1432.4 754.268L1467.26 312.939L1118.63 563.694Z" stroke="#62B9EA" stroke-width="1.33333"/>
<path d="M1467.26 312.939L1432.4 754.268L1621.66 568.709L1467.26 312.939Z" fill="#5AA9CD"/>
<path d="M1467.26 312.939L1432.4 754.268L1621.66 568.709L1467.26 312.939Z" stroke="#5AA9CD" stroke-width="1.33333"/>
<path d="M1432.4 754.268L1527.03 769.313L1621.66 568.709L1432.4 754.268Z" fill="#60BAEB"/>
<path d="M1432.4 754.268L1527.03 769.313L1621.66 568.709L1432.4 754.268Z" stroke="#60BAEB" stroke-width="1.33333"/>
<path d="M1522.05 844.54L1488.18 1085.26H1587.79L1522.05 844.54Z" fill="#7DD3F6"/>
<path d="M1522.05 844.54L1488.18 1085.26H1587.79L1522.05 844.54Z" stroke="#7DD3F6" stroke-width="1.33333"/>
<path d="M1488.18 2.00018L1467.26 312.939L1587.79 2.00018H1488.18Z" fill="#B8E8F6"/>
<path d="M1488.18 2.00018L1467.26 312.939L1587.79 2.00018H1488.18Z" stroke="#B8E8F6" stroke-width="1.33333"/>
<path d="M1587.79 2.00018L1467.26 312.939H1726.25L1587.79 2.00018Z" fill="#B1E6FA"/>
<path d="M1587.79 2.00018L1467.26 312.939H1726.25L1587.79 2.00018Z" stroke="#B1E6FA" stroke-width="1.33333"/>
<path d="M1467.26 312.939L1621.66 568.709L1726.25 312.939H1467.26Z" fill="#6BC4E5"/>
<path d="M1467.26 312.939L1621.66 568.709L1726.25 312.939H1467.26Z" stroke="#6BC4E5" stroke-width="1.33333"/>
<path d="M1522.05 844.54L1587.79 1085.26H1686.4L1522.05 844.54Z" fill="#70CBF3"/>
<path d="M1522.05 844.54L1587.79 1085.26H1686.4L1522.05 844.54Z" stroke="#70CBF3" stroke-width="1.33333"/>
<path d="M1527.03 769.313L1522.05 844.54L1790.99 894.691L1527.03 769.313Z" fill="#61A5DF"/>
<path d="M1527.03 769.313L1522.05 844.54L1790.99 894.691L1527.03 769.313Z" stroke="#61A5DF" stroke-width="1.33333"/>
<path d="M1522.05 844.54L1686.4 1085.26L1790.99 894.691L1522.05 844.54Z" fill="#6BC4EF"/>
<path d="M1522.05 844.54L1686.4 1085.26L1790.99 894.691L1522.05 844.54Z" stroke="#6BC4EF" stroke-width="1.33333"/>
<path d="M1686.4 2.00018H1587.79L1726.25 312.939L1686.4 2.00018Z" fill="#88D9F8"/>
<path d="M1686.4 2.00018H1587.79L1726.25 312.939L1686.4 2.00018Z" stroke="#88D9F8" stroke-width="1.33333"/>
<path d="M1686.4 2.00018L1726.25 312.939L1815.89 232.698L1686.4 2.00018Z" fill="#4FA2DF"/>
<path d="M1686.4 2.00018L1726.25 312.939L1815.89 232.698L1686.4 2.00018Z" stroke="#4FA2DF" stroke-width="1.33333"/>
<path d="M1686.4 1085.26H1786.01L1790.99 894.691L1686.4 1085.26Z" fill="#6EC7F1"/>
<path d="M1686.4 1085.26H1786.01L1790.99 894.691L1686.4 1085.26Z" stroke="#6EC7F1" stroke-width="1.33333"/>
<path d="M1786.01 2.00011H1686.4L1815.89 232.698L1786.01 2.00011Z" fill="#70C8F1"/>
<path d="M1786.01 2.00011H1686.4L1815.89 232.698L1786.01 2.00011Z" stroke="#70C8F1" stroke-width="1.33333"/>
<path d="M1621.66 568.709L1527.03 769.313L1870.68 759.283L1621.66 568.709Z" fill="#4F95D7"/>
<path d="M1621.66 568.709L1527.03 769.313L1870.68 759.283L1621.66 568.709Z" stroke="#4F95D7" stroke-width="1.33333"/>
<path d="M1527.03 769.313L1790.99 894.691L1870.68 759.283L1527.03 769.313Z" fill="#5791D3"/>
<path d="M1527.03 769.313L1790.99 894.691L1870.68 759.283L1527.03 769.313Z" stroke="#5791D3" stroke-width="1.33333"/>
<path d="M1815.89 232.698L1726.25 312.939L1850.76 368.105L1815.89 232.698Z" fill="#4783CC"/>
<path d="M1815.89 232.698L1726.25 312.939L1850.76 368.105L1815.89 232.698Z" stroke="#4783CC" stroke-width="1.33333"/>
<path d="M1850.76 368.105L1621.66 568.709L1885.62 453.362L1850.76 368.105Z" fill="#68ACE2"/>
<path d="M1850.76 368.105L1621.66 568.709L1885.62 453.362L1850.76 368.105Z" stroke="#68ACE2" stroke-width="1.33333"/>
<path d="M1726.25 312.939L1621.66 568.709L1850.76 368.105L1726.25 312.939Z" fill="#51A3DF"/>
<path d="M1726.25 312.939L1621.66 568.709L1850.76 368.105L1726.25 312.939Z" stroke="#51A3DF" stroke-width="1.33333"/>
<path d="M1915.5 200.601L1815.89 232.698L1915.5 300.903V200.601Z" fill="#4AA2DD"/>
<path d="M1915.5 200.601L1815.89 232.698L1915.5 300.903V200.601Z" stroke="#4AA2DD" stroke-width="1.33333"/>
<path d="M1815.89 232.698L1850.76 368.105L1915.5 300.903L1815.89 232.698Z" fill="#3B5EB4"/>
<path d="M1815.89 232.698L1850.76 368.105L1915.5 300.903L1815.89 232.698Z" stroke="#3B5EB4" stroke-width="1.33333"/>
<path d="M1915.5 300.903L1850.76 368.106L1915.5 400.202V300.903Z" fill="#3759B1"/>
<path d="M1915.5 300.903L1850.76 368.106L1915.5 400.202V300.903Z" stroke="#3759B1" stroke-width="1.33333"/>
<path d="M1850.76 368.105L1885.62 453.362L1915.5 400.202L1850.76 368.105Z" fill="#3C5FB5"/>
<path d="M1850.76 368.105L1885.62 453.362L1915.5 400.202L1850.76 368.105Z" stroke="#3C5FB5" stroke-width="1.33333"/>
<path d="M1915.5 400.202L1885.62 453.362L1915.5 500.504V400.202Z" fill="#3D62B7"/>
<path d="M1915.5 400.202L1885.62 453.362L1915.5 500.504V400.202Z" stroke="#3D62B7" stroke-width="1.33333"/>
<path d="M1786.01 1085.26H1884.62L1915.5 999.005L1786.01 1085.26Z" fill="#66BDEC"/>
<path d="M1786.01 1085.26H1884.62L1915.5 999.005L1786.01 1085.26Z" stroke="#66BDEC" stroke-width="1.33333"/>
<path d="M1790.99 894.691L1786.01 1085.26L1915.5 999.005L1790.99 894.691Z" fill="#6BC3EF"/>
<path d="M1790.99 894.691L1786.01 1085.26L1915.5 999.005L1790.99 894.691Z" stroke="#6BC3EF" stroke-width="1.33333"/>
<path d="M1915.5 899.706L1790.99 894.691L1915.5 999.005V899.706Z" fill="#6AC7F1"/>
<path d="M1915.5 899.706L1790.99 894.691L1915.5 999.005V899.706Z" stroke="#6AC7F1" stroke-width="1.33333"/>
<path d="M1915.5 500.504L1885.62 453.362L1915.5 599.803V500.504Z" fill="#436EBF"/>
<path d="M1915.5 500.504L1885.62 453.362L1915.5 599.803V500.504Z" stroke="#436EBF" stroke-width="1.33333"/>
<path d="M1885.62 453.362L1621.66 568.709L1915.5 599.803L1885.62 453.362Z" fill="#4582CB"/>
<path d="M1885.62 453.362L1621.66 568.709L1915.5 599.803L1885.62 453.362Z" stroke="#4582CB" stroke-width="1.33333"/>
<path d="M1621.66 568.709L1870.68 759.283L1915.5 599.803L1621.66 568.709Z" fill="#4C8CD1"/>
<path d="M1621.66 568.709L1870.68 759.283L1915.5 599.803L1621.66 568.709Z" stroke="#4C8CD1" stroke-width="1.33333"/>
<path d="M1915.5 599.803L1870.68 759.283L1915.5 700.105V599.803Z" fill="#4D7CC7"/>
<path d="M1915.5 599.803L1870.68 759.283L1915.5 700.105V599.803Z" stroke="#4D7CC7" stroke-width="1.33333"/>
<path d="M1790.99 894.691L1915.5 899.706V799.404L1790.99 894.691Z" fill="#6ACFF6"/>
<path d="M1790.99 894.691L1915.5 899.706V799.404L1790.99 894.691Z" stroke="#6ACFF6" stroke-width="1.33333"/>
<path d="M1870.68 759.283L1790.99 894.691L1915.5 799.404L1870.68 759.283Z" fill="#62B6E8"/>
<path d="M1870.68 759.283L1790.99 894.691L1915.5 799.404L1870.68 759.283Z" stroke="#62B6E8" stroke-width="1.33333"/>
<path d="M1915.5 700.105L1870.68 759.283L1915.5 799.404V700.105Z" fill="#5184CC"/>
<path d="M1915.5 700.105L1870.68 759.283L1915.5 799.404V700.105Z" stroke="#5184CC" stroke-width="1.33333"/>
<path d="M1915.5 999.005L1884.62 1085.26H1915.5V999.005Z" fill="#77D3F6"/>
<path d="M1915.5 999.005L1884.62 1085.26H1915.5V999.005Z" stroke="#77D3F6" stroke-width="1.33333"/>
<path d="M1884.62 1.99998H1786.01L1915.5 101.302L1884.62 1.99998Z" fill="#A3DEF7"/>
<path d="M1884.62 1.99998H1786.01L1915.5 101.302L1884.62 1.99998Z" stroke="#A3DEF7" stroke-width="1.33333"/>
<path d="M1815.89 232.698L1915.5 200.601V101.302L1815.89 232.698Z" fill="#519FDD"/>
<path d="M1815.89 232.698L1915.5 200.601V101.302L1815.89 232.698Z" stroke="#519FDD" stroke-width="1.33333"/>
<path d="M1786.01 2.00011L1815.89 232.698L1915.5 101.302L1786.01 2.00011Z" fill="#65B5E7"/>
<path d="M1786.01 2.00011L1815.89 232.698L1915.5 101.302L1786.01 2.00011Z" stroke="#65B5E7" stroke-width="1.33333"/>
<path d="M1915.5 1.99998H1884.62L1915.5 101.302V1.99998Z" fill="#CDE9F8"/>
<path d="M1915.5 1.99998H1884.62L1915.5 101.302V1.99998Z" stroke="#CDE9F8" stroke-width="1.33333"/>
</svg>
